# xmcd
#
# Track frame offsets: 
#        150
#        13409
#        30551
#        56278
#        77395
#        97554
#        136888
#        153439
#        183712
#
# Disc length: 2907 seconds
#
# Revision: 0
# Processed by: cddbd v1.5.2PL0 Copyright (c) Steve Scherf et al.
# Submitted via: ExactAudioCopy v1.0b3
#
DISCID=600b5909
DTITLE=Crossroads - Jak Szybko Mija Czas
DYEAR=2016
DGENRE=Blues
TTITLE0=Zły Sen
TTITLE1=Statesboro Blues
TTITLE2=I Miss You
TTITLE3=Mała Rzecz
TTITLE4=feat. M. Blaszynska - Jak Szybko Mija Czas
TTITLE5=Grudniowy Wieczór
TTITLE6=feat. S. Wierzcholski - Cela Blues
TTITLE7=Reverie
TTITLE8=Thrill Is Gone (bonus track)
EXTD=
EXTT0=
EXTT1=
EXTT2=
EXTT3=
EXTT4=
EXTT5=
EXTT6=
EXTT7=
EXTT8=
PLAYORDER=
